<?xml version="1.0" encoding="utf-8"?>
<!-- Generator: Adobe Illustrator 23.1.0, SVG Export Plug-In . SVG Version: 6.00 Build 0)  -->
<svg version="1.1" id="图层_1" xmlns="http://www.w3.org/2000/svg" xmlns:xlink="http://www.w3.org/1999/xlink" x="0px" y="0px"
	 viewBox="0 0 448 448" style="enable-background:new 0 0 448 448;" xml:space="preserve">
<style type="text/css">
	.st0{fill:#007AFF;}
</style>
<path class="st0" d="M400,0H48C21.5,0,0,21.5,0,48v352c0,26.5,21.5,48,48,48h352c26.5,0,48-21.5,48-48V48C448,21.5,426.5,0,400,0z
	 M336,280c-31.6,11.2-41.2,16-59.8,16c-31.4,0-43.2-16-74.6-16c-8.7-0.1-17.3,1.3-25.6,4v-32c8.3-2.6,16.9-4,25.6-4
	c31.2,0,43.2,16,74.6,16c10.2,0,17.8-1.4,27.8-4.6v-96c-10,3.2-17.6,4.6-27.8,4.6c-31.4,0-43.2-16-74.6-16
	c-25.4,0-37.4,10.4-57.6,14.4V320c0,8.8-7.2,16-16,16s-16-7.2-16-16V128c0-8.8,7.2-16,16-16s16,7.2,16,16v6.4
	c20.2-4,32.2-14.4,57.6-14.4c31.2,0,43.2,16,74.6,16c18.6,0,28.2-4.8,59.8-16V280z"/>
</svg>
